<?xml version="1.0" encoding="UTF-8" standalone="no"?>
<svg
   viewBox="0 0 24 24"
   version="1.1"
   id="svg12"
   sodipodi:docname="book-plus.svg"
   inkscape:version="1.2.1 (9c6d41e410, 2022-07-14)"
   xmlns:inkscape="http://www.inkscape.org/namespaces/inkscape"
   xmlns:sodipodi="http://sodipodi.sourceforge.net/DTD/sodipodi-0.dtd"
   xmlns="http://www.w3.org/2000/svg"
   xmlns:svg="http://www.w3.org/2000/svg">
  <defs
     id="defs16" />
  <sodipodi:namedview
     id="namedview14"
     pagecolor="#505050"
     bordercolor="#eeeeee"
     borderopacity="1"
     inkscape:showpageshadow="0"
     inkscape:pageopacity="0"
     inkscape:pagecheckerboard="0"
     inkscape:deskcolor="#505050"
     showgrid="false"
     inkscape:zoom="34.416667"
     inkscape:cx="12.014528"
     inkscape:cy="12.014528"
     inkscape:window-width="1920"
     inkscape:window-height="1013"
     inkscape:window-x="-9"
     inkscape:window-y="29"
     inkscape:window-maximized="1"
     inkscape:current-layer="svg12" />
  <path
     d="M13 19C13 20.1 13.3 21.12 13.81 22H6C4.89 22 4 21.11 4 20V4C4 2.9 4.89 2 6 2H7V9L9.5 7.5L12 9V2H18C19.1 2 20 2.89 20 4V13.09C19.67 13.04 19.34 13 19 13C15.69 13 13 15.69 13 19M20 18V15H18V18H15V20H18V23H20V20H23V18H20Z"
     id="path10"
     style="fill:#318ce7;fill-opacity:1" />
</svg>
