<?xml version="1.0" encoding="UTF-8" standalone="no"?>
<svg
   viewBox="0 0 24 24"
   version="1.1"
   id="svg12"
   sodipodi:docname="book-edit-blue.svg"
   inkscape:version="1.2.1 (9c6d41e410, 2022-07-14)"
   xmlns:inkscape="http://www.inkscape.org/namespaces/inkscape"
   xmlns:sodipodi="http://sodipodi.sourceforge.net/DTD/sodipodi-0.dtd"
   xmlns="http://www.w3.org/2000/svg"
   xmlns:svg="http://www.w3.org/2000/svg">
  <defs
     id="defs16" />
  <sodipodi:namedview
     id="namedview14"
     pagecolor="#ffffff"
     bordercolor="#000000"
     borderopacity="0.25"
     inkscape:showpageshadow="2"
     inkscape:pageopacity="0.0"
     inkscape:pagecheckerboard="0"
     inkscape:deskcolor="#d1d1d1"
     showgrid="false"
     inkscape:zoom="34.875"
     inkscape:cx="12"
     inkscape:cy="12.014337"
     inkscape:window-width="1920"
     inkscape:window-height="1017"
     inkscape:window-x="-8"
     inkscape:window-y="-8"
     inkscape:window-maximized="1"
     inkscape:current-layer="svg12" />
  <path
     d="M19.39 10.74L11 19.13V22H6C4.89 22 4 21.11 4 20V4C4 2.9 4.89 2 6 2H7V9L9.5 7.5L12 9V2H18C19.1 2 20 2.89 20 4V10.3C19.78 10.42 19.57 10.56 19.39 10.74M13 19.96V22H15.04L21.17 15.88L19.13 13.83L13 19.96M22.85 13.47L21.53 12.15C21.33 11.95 21 11.95 20.81 12.15L19.83 13.13L21.87 15.17L22.85 14.19C23.05 14 23.05 13.67 22.85 13.47Z"
     id="path10" />
  <path
     style="fill:#318ce7;stroke-width:0.0286738;fill-opacity:1"
     d="M 5.6630824,21.958807 C 5.6236559,21.952275 5.5075269,21.920677 5.4050179,21.88859 4.7553335,21.685227 4.278735,21.184656 4.0791522,20.496034 L 4.0143369,20.272401 V 12 3.7275986 l 0.06604,-0.2280985 C 4.1895293,3.1224983 4.323245,2.8995578 4.615004,2.6081321 4.8869045,2.3365422 5.0636026,2.2240682 5.4050179,2.105263 5.5738182,2.0465241 5.6569834,2.0392696 6.2867384,2.0283511 l 0.6953405,-0.012056 v 3.5032025 c 0,1.9613219 0.010925,3.4989956 0.024822,3.4936442 0.013653,-0.00526 0.5804872,-0.3430658 1.2596333,-0.7506868 l 1.2348112,-0.7411291 1.2421586,0.7455862 1.242159,0.7455865 0.0073,-3.4954967 0.0073,-3.4954968 h 3.112506 c 3.479149,0 3.322731,-0.00846 3.754651,0.203159 0.517261,0.253437 0.89377,0.710511 1.053777,1.2792644 0.06284,0.2233842 0.06294,0.2278453 0.07212,3.4940741 l 0.0092,3.2704044 -0.237799,0.152669 c -0.205136,0.1317 -0.82366,0.737976 -4.503032,4.413865 l -4.265233,4.261194 v 1.44118 1.44118 l -2.6308246,-0.0039 c -1.4469534,-0.0021 -2.6630824,-0.0092 -2.702509,-0.01578 z"
     id="path3057" />
  <path
     style="fill:#318ce7;fill-opacity:1;stroke-width:0.0286738"
     d="m 13.003584,20.982029 v -0.996466 l 3.061033,-3.060933 3.061033,-3.060932 1.012934,1.013235 1.012933,1.013236 -3.062069,3.044163 -3.062069,3.044163 h -1.011897 -1.011898 z"
     id="path5343" />
  <path
     style="fill:#318ce7;fill-opacity:1;stroke-width:0.0286738"
     d="m 20.852823,14.128811 -0.996331,-0.996637 0.523367,-0.520018 c 0.287852,-0.28601 0.55356,-0.535373 0.590463,-0.55414 0.09466,-0.04814 0.298247,-0.04236 0.412182,0.01171 0.141923,0.06735 1.500325,1.439565 1.555113,1.57093 0.05181,0.124235 0.05664,0.244049 0.0144,0.357477 -0.02581,0.0693 -1.047001,1.127315 -1.088084,1.127315 -0.0081,0 -0.46313,-0.448487 -1.011113,-0.996637 z"
     id="path5345" />
</svg>
