<?xml version="1.0" encoding="UTF-8" standalone="no"?>
<svg
   viewBox="0 0 24 24"
   version="1.1"
   id="svg3427"
   sodipodi:docname="calendar-edit.svg"
   inkscape:version="1.2.1 (9c6d41e410, 2022-07-14)"
   xmlns:inkscape="http://www.inkscape.org/namespaces/inkscape"
   xmlns:sodipodi="http://sodipodi.sourceforge.net/DTD/sodipodi-0.dtd"
   xmlns="http://www.w3.org/2000/svg"
   xmlns:svg="http://www.w3.org/2000/svg">
  <defs
     id="defs3431" />
  <sodipodi:namedview
     id="namedview3429"
     pagecolor="#ffffff"
     bordercolor="#000000"
     borderopacity="0.25"
     inkscape:showpageshadow="2"
     inkscape:pageopacity="0.0"
     inkscape:pagecheckerboard="0"
     inkscape:deskcolor="#d1d1d1"
     showgrid="false"
     inkscape:zoom="33.916667"
     inkscape:cx="10.113022"
     inkscape:cy="12.014742"
     inkscape:window-width="1920"
     inkscape:window-height="1001"
     inkscape:window-x="-9"
     inkscape:window-y="-9"
     inkscape:window-maximized="1"
     inkscape:current-layer="svg3427" />
  <path
     d="M19,3H18V1H16V3H8V1H6V3H5A2,2 0 0,0 3,5V19A2,2 0 0,0 5,21H10V19H5V8H19V9H21V5A2,2 0 0,0 19,3M21.7,13.35L20.7,14.35L18.65,12.35L19.65,11.35C19.85,11.14 20.19,11.13 20.42,11.35L21.7,12.63C21.89,12.83 21.89,13.15 21.7,13.35M12,18.94L18.07,12.88L20.12,14.88L14.06,21H12V18.94Z"
     id="path3425"
     style="fill:#1976d2;fill-opacity:1" />
</svg>
