<?xml version="1.0" encoding="UTF-8" standalone="no"?>
<svg
   viewBox="0 0 24 24"
   version="1.1"
   id="svg12"
   sodipodi:docname="handshake.svg"
   inkscape:version="1.2.1 (9c6d41e410, 2022-07-14)"
   xmlns:inkscape="http://www.inkscape.org/namespaces/inkscape"
   xmlns:sodipodi="http://sodipodi.sourceforge.net/DTD/sodipodi-0.dtd"
   xmlns="http://www.w3.org/2000/svg"
   xmlns:svg="http://www.w3.org/2000/svg">
  <defs
     id="defs16" />
  <sodipodi:namedview
     id="namedview14"
     pagecolor="#505050"
     bordercolor="#eeeeee"
     borderopacity="1"
     inkscape:showpageshadow="0"
     inkscape:pageopacity="0"
     inkscape:pagecheckerboard="0"
     inkscape:deskcolor="#505050"
     showgrid="false"
     inkscape:zoom="34.416667"
     inkscape:cx="12.014528"
     inkscape:cy="12.014528"
     inkscape:window-width="1920"
     inkscape:window-height="1013"
     inkscape:window-x="-9"
     inkscape:window-y="29"
     inkscape:window-maximized="1"
     inkscape:current-layer="svg12" />
  <path
     d="M11 6H14L17.29 2.7A1 1 0 0 1 18.71 2.7L21.29 5.29A1 1 0 0 1 21.29 6.7L19 9H11V11A1 1 0 0 1 10 12A1 1 0 0 1 9 11V8A2 2 0 0 1 11 6M5 11V15L2.71 17.29A1 1 0 0 0 2.71 18.7L5.29 21.29A1 1 0 0 0 6.71 21.29L11 17H15A1 1 0 0 0 16 16V15H17A1 1 0 0 0 18 14V13H19A1 1 0 0 0 20 12V11H13V12A2 2 0 0 1 11 14H9A2 2 0 0 1 7 12V9Z"
     id="path10"
     style="fill:#ffffff;fill-opacity:1" />
</svg>
