<?xml version="1.0" encoding="UTF-8" standalone="no"?>
<svg
   viewBox="0 0 24 24"
   version="1.1"
   id="svg390"
   sodipodi:docname="not-paid.svg"
   inkscape:version="1.2.1 (9c6d41e410, 2022-07-14)"
   xmlns:inkscape="http://www.inkscape.org/namespaces/inkscape"
   xmlns:sodipodi="http://sodipodi.sourceforge.net/DTD/sodipodi-0.dtd"
   xmlns="http://www.w3.org/2000/svg"
   xmlns:svg="http://www.w3.org/2000/svg">
  <defs
     id="defs394" />
  <sodipodi:namedview
     id="namedview392"
     pagecolor="#ffffff"
     bordercolor="#666666"
     borderopacity="1.0"
     inkscape:showpageshadow="2"
     inkscape:pageopacity="0.0"
     inkscape:pagecheckerboard="0"
     inkscape:deskcolor="#d1d1d1"
     showgrid="false"
     inkscape:zoom="9.8333333"
     inkscape:cx="12"
     inkscape:cy="12.050847"
     inkscape:window-width="749"
     inkscape:window-height="750"
     inkscape:window-x="0"
     inkscape:window-y="16"
     inkscape:window-maximized="1"
     inkscape:current-layer="svg390" />
  <path
     d="M3,4.27L4.28,3L21,19.72L19.73,21L16.06,17.33C15.44,18 14.54,18.55 13.5,18.82V21H10.5V18.82C8.47,18.31 7,16.79 7,15H9C9,16.08 10.37,17 12,17C13.13,17 14.14,16.56 14.65,15.92L11.68,12.95C9.58,12.42 7,11.75 7,9C7,8.77 7,8.55 7.07,8.34L3,4.27M10.5,5.18V3H13.5V5.18C15.53,5.69 17,7.21 17,9H15C15,7.92 13.63,7 12,7C11.63,7 11.28,7.05 10.95,7.13L9.4,5.58L10.5,5.18Z"
     id="path388"
     style="fill:#ff0000" />
</svg>
