<?xml version="1.0" encoding="UTF-8" standalone="no"?>
<svg
   viewBox="0 0 24 24"
   version="1.1"
   id="svg12"
   sodipodi:docname="town-hall.svg"
   inkscape:version="1.2.1 (9c6d41e410, 2022-07-14)"
   xmlns:inkscape="http://www.inkscape.org/namespaces/inkscape"
   xmlns:sodipodi="http://sodipodi.sourceforge.net/DTD/sodipodi-0.dtd"
   xmlns="http://www.w3.org/2000/svg"
   xmlns:svg="http://www.w3.org/2000/svg">
  <defs
     id="defs16" />
  <sodipodi:namedview
     id="namedview14"
     pagecolor="#505050"
     bordercolor="#eeeeee"
     borderopacity="1"
     inkscape:showpageshadow="0"
     inkscape:pageopacity="0"
     inkscape:pagecheckerboard="0"
     inkscape:deskcolor="#505050"
     showgrid="false"
     inkscape:zoom="34.416667"
     inkscape:cx="12.014528"
     inkscape:cy="12.014528"
     inkscape:window-width="1920"
     inkscape:window-height="1013"
     inkscape:window-x="-9"
     inkscape:window-y="29"
     inkscape:window-maximized="1"
     inkscape:current-layer="svg12" />
  <path
     d="M21 10H17V8L12.5 6.2V4H15V2H11.5V6.2L7 8V10H3C2.45 10 2 10.45 2 11V22H10V17H14V22H22V11C22 10.45 21.55 10 21 10M8 20H4V17H8V20M8 15H4V12H8V15M12 8C12.55 8 13 8.45 13 9S12.55 10 12 10 11 9.55 11 9 11.45 8 12 8M14 15H10V12H14V15M20 20H16V17H20V20M20 15H16V12H20V15Z"
     id="path10"
     style="fill:#ffffff;fill-opacity:1" />
</svg>
