<?xml version="1.0" encoding="UTF-8" standalone="no"?>
<svg
   viewBox="0 0 24 24"
   version="1.1"
   id="svg1440"
   sodipodi:docname="truck-fast.svg"
   inkscape:version="1.2.1 (9c6d41e410, 2022-07-14)"
   xmlns:inkscape="http://www.inkscape.org/namespaces/inkscape"
   xmlns:sodipodi="http://sodipodi.sourceforge.net/DTD/sodipodi-0.dtd"
   xmlns="http://www.w3.org/2000/svg"
   xmlns:svg="http://www.w3.org/2000/svg">
  <defs
     id="defs1444" />
  <sodipodi:namedview
     id="namedview1442"
     pagecolor="#ffffff"
     bordercolor="#666666"
     borderopacity="1.0"
     inkscape:showpageshadow="2"
     inkscape:pageopacity="0.0"
     inkscape:pagecheckerboard="0"
     inkscape:deskcolor="#d1d1d1"
     showgrid="false"
     inkscape:zoom="9.8333333"
     inkscape:cx="12.050847"
     inkscape:cy="12.050847"
     inkscape:window-width="1364"
     inkscape:window-height="750"
     inkscape:window-x="0"
     inkscape:window-y="16"
     inkscape:window-maximized="1"
     inkscape:current-layer="svg1440" />
  <path
     d="M3,13.5L2.25,12H7.5L6.9,10.5H2L1.25,9H9.05L8.45,7.5H1.11L0.25,6H4A2,2 0 0,1 6,4H18V8H21L24,12V17H22A3,3 0 0,1 19,20A3,3 0 0,1 16,17H12A3,3 0 0,1 9,20A3,3 0 0,1 6,17H4V13.5H3M19,18.5A1.5,1.5 0 0,0 20.5,17A1.5,1.5 0 0,0 19,15.5A1.5,1.5 0 0,0 17.5,17A1.5,1.5 0 0,0 19,18.5M20.5,9.5H18V12H22.46L20.5,9.5M9,18.5A1.5,1.5 0 0,0 10.5,17A1.5,1.5 0 0,0 9,15.5A1.5,1.5 0 0,0 7.5,17A1.5,1.5 0 0,0 9,18.5Z"
     id="path1438"
     style="fill:#318fff;fill-opacity:1" />
</svg>
